<?xml version="1.0" standalone="no"?>
<!DOCTYPE svg PUBLIC "-//W3C//DTD SVG 20010904//EN"
 "http://www.w3.org/TR/2001/REC-SVG-20010904/DTD/svg10.dtd">
<svg version="1.0" xmlns="http://www.w3.org/2000/svg"
 width="650.000000pt" height="500.000000pt" viewBox="0 0 650.000000 500.000000"
 preserveAspectRatio="xMidYMid meet">
<metadata>
Created by potrace 1.16, written by Peter Selinger 2001-2019
</metadata>
<g transform="translate(0.000000,500.000000) scale(0.100000,-0.100000)"
fill="#000000" stroke="none">
<path d="M2530 3820 c0 -16 24 -64 42 -82 10 -10 20 -29 24 -43 3 -14 10 -23
14 -20 5 3 14 -10 21 -29 7 -19 16 -33 20 -30 4 2 13 -12 20 -31 7 -19 17 -35
21 -35 5 0 17 -18 27 -40 10 -22 20 -37 23 -34 4 3 12 -10 19 -30 7 -19 16
-33 20 -31 4 3 12 -9 19 -25 7 -17 16 -30 20 -30 4 0 15 -18 25 -40 10 -22 21
-40 25 -40 4 0 13 -13 20 -30 7 -16 16 -30 20 -30 4 0 13 -13 20 -30 7 -16 16
-30 20 -30 4 0 13 -13 20 -30 7 -16 17 -30 23 -30 6 0 8 -3 4 -6 -3 -4 -1 -12
6 -20 30 -33 35 -42 30 -48 -4 -3 -2 -6 4 -6 6 0 16 -13 23 -30 7 -16 16 -30
20 -30 4 0 13 -13 20 -30 7 -16 17 -30 23 -30 6 0 8 -3 4 -6 -3 -4 -1 -12 6
-20 30 -33 35 -42 30 -48 -4 -3 -2 -6 4 -6 6 0 16 -13 23 -30 7 -16 16 -30 20
-30 4 0 13 -13 20 -30 7 -16 17 -30 23 -30 6 0 8 -3 4 -6 -3 -4 -1 -12 6 -20
30 -33 35 -42 30 -48 -4 -3 -2 -6 4 -6 6 0 16 -13 23 -30 7 -16 16 -30 20 -30
5 0 16 -20 26 -44 10 -24 22 -42 25 -40 4 2 13 -12 19 -31 6 -19 16 -35 21
-35 5 0 15 -12 22 -27 6 -16 20 -37 29 -47 10 -11 18 -25 18 -31 0 -7 9 -22
20 -35 11 -13 23 -34 26 -47 4 -12 10 -21 14 -18 4 3 13 -9 20 -25 7 -17 16
-30 20 -30 4 0 15 -18 25 -40 10 -22 22 -40 26 -40 4 0 13 -16 20 -34 7 -19
16 -33 20 -31 4 3 12 -9 19 -25 7 -17 16 -30 20 -30 4 0 15 -18 25 -40 10 -22
22 -40 26 -40 4 0 13 -16 20 -34 7 -19 16 -33 20 -31 4 3 12 -9 19 -25 7 -17
16 -30 20 -30 4 0 13 -13 20 -30 7 -16 21 -40 31 -52 10 -13 28 -34 39 -48 11
-14 45 -63 75 -110 30 -47 60 -92 65 -100 6 -8 26 -40 45 -70 19 -30 38 -60
43 -66 5 -5 15 -21 22 -34 7 -13 17 -29 22 -34 5 -6 24 -36 43 -66 19 -30 39
-60 45 -67 5 -7 15 -24 22 -38 6 -14 14 -25 18 -25 4 0 15 -18 25 -40 10 -22
21 -40 25 -40 4 0 13 -13 20 -30 7 -16 16 -30 20 -30 4 0 15 -18 25 -40 12
-27 24 -40 38 -40 11 0 18 3 14 6 -3 4 -1 12 6 20 29 32 37 44 32 44 -4 0 0 7
7 15 31 34 36 43 31 49 -4 3 -1 6 6 6 7 0 10 4 7 8 -3 5 4 14 14 22 10 8 17
17 14 22 -3 4 0 8 7 8 7 0 10 3 6 6 -3 4 -1 12 6 20 29 32 37 44 32 44 -4 0 0
7 7 15 31 34 36 43 31 49 -4 3 -1 6 6 6 7 0 10 4 7 8 -3 5 4 14 14 22 10 8 17
17 14 22 -3 4 0 8 7 8 7 0 10 3 6 6 -3 4 -1 12 6 20 29 32 37 44 32 44 -4 0 0
7 7 15 31 34 36 43 31 49 -4 3 -1 6 6 6 7 0 10 4 7 8 -3 5 4 14 14 22 10 8 17
17 14 22 -3 4 0 8 7 8 7 0 10 3 6 6 -3 4 -1 12 6 20 29 32 37 44 32 44 -4 0 0
7 7 15 31 34 36 43 31 49 -4 3 0 6 7 6 7 0 11 3 7 6 -3 4 -1 12 6 20 29 32 37
44 32 44 -4 0 0 7 7 15 29 33 38 45 33 45 -4 0 0 7 7 15 31 34 36 43 31 49 -4
3 0 6 7 6 7 0 11 3 7 6 -3 4 -1 12 6 20 29 32 37 44 32 44 -4 0 0 7 7 15 29
33 38 45 33 45 -4 0 0 7 7 15 31 34 36 43 31 49 -4 3 0 6 7 6 7 0 11 3 7 6 -3
4 -1 12 6 20 29 32 37 44 32 44 -6 0 4 13 33 45 7 8 11 15 7 15 -4 0 0 7 7 15
31 34 36 43 31 49 -4 3 0 6 7 6 7 0 11 3 7 6 -3 4 -1 12 6 20 29 32 37 44 32
44 -4 0 0 7 7 15 29 33 38 45 33 45 -4 0 0 7 7 15 31 34 36 43 31 49 -4 3 0 6
7 6 7 0 11 3 7 6 -3 4 -1 12 6 20 29 32 37 44 32 44 -4 0 0 7 7 15 29 33 38
45 33 45 -4 0 0 7 7 15 31 34 36 43 31 49 -4 3 0 6 7 6 7 0 11 3 7 6 -3 4 -1
12 6 20 29 32 37 44 32 44 -4 0 0 7 7 15 29 33 38 45 33 45 -4 0 0 7 7 15 31
34 36 43 31 49 -4 3 0 6 7 6 7 0 11 3 7 6 -3 4 -1 12 6 20 29 32 37 44 32 44
-6 0 4 13 33 45 7 8 11 15 7 15 -4 0 0 7 7 15 31 34 36 43 31 49 -4 3 0 6 7 6
7 0 11 3 7 6 -3 4 -1 12 6 20 29 32 37 44 32 44 -4 0 0 7 7 15 29 33 38 45 33
45 -4 0 0 7 7 15 31 34 36 43 31 49 -4 3 0 6 7 6 7 0 11 3 7 6 -3 4 -1 12 6
20 29 32 37 44 32 44 -4 0 0 7 7 15 29 33 38 45 33 45 -4 0 0 7 7 15 31 34 36
43 31 49 -4 3 -1 6 6 6 7 0 10 4 7 8 -3 5 4 14 14 22 10 8 17 17 14 22 -3 4 0
8 7 8 7 0 10 3 6 6 -3 4 -1 12 6 20 29 32 37 44 32 44 -4 0 0 7 7 15 31 34 36
43 31 49 -4 3 -1 6 6 6 7 0 10 4 7 8 -3 5 4 14 14 22 10 8 17 17 14 22 -3 4 0
8 7 8 7 0 10 3 6 6 -5 6 0 15 31 49 7 8 11 15 7 15 -4 0 0 7 7 15 31 34 36 43
31 49 -4 3 -1 6 6 6 7 0 10 4 7 8 -3 5 4 14 14 22 10 8 17 17 14 22 -3 4 0 8
6 8 6 0 8 5 5 10 -3 6 -1 10 4 10 6 0 11 5 11 10 0 6 -110 10 -311 10 -263 0
-313 -2 -325 -15 -9 -8 -12 -15 -8 -15 4 0 -3 -8 -14 -19 -12 -10 -19 -21 -15
-25 3 -3 0 -6 -7 -6 -7 0 -11 -3 -7 -6 3 -4 1 -12 -6 -20 -29 -32 -37 -44 -32
-44 4 0 0 -7 -7 -15 -31 -34 -36 -43 -31 -49 4 -3 1 -6 -6 -6 -7 0 -10 -4 -7
-8 3 -5 -4 -14 -14 -22 -10 -8 -17 -17 -14 -22 3 -4 0 -8 -7 -8 -7 0 -10 -3
-6 -6 5 -6 0 -15 -31 -49 -7 -8 -11 -15 -7 -15 4 0 0 -7 -7 -15 -31 -34 -36
-43 -31 -49 4 -3 1 -6 -6 -6 -7 0 -10 -4 -7 -8 3 -5 -4 -14 -14 -22 -10 -8
-17 -17 -14 -22 3 -4 0 -8 -7 -8 -7 0 -10 -3 -6 -6 3 -4 1 -12 -6 -20 -29 -32
-37 -44 -32 -44 4 0 0 -7 -7 -15 -31 -34 -36 -43 -31 -49 4 -3 1 -6 -6 -6 -7
0 -10 -4 -7 -8 3 -5 -4 -14 -14 -22 -10 -8 -17 -17 -14 -22 3 -4 0 -8 -7 -8
-7 0 -10 -3 -6 -6 3 -4 1 -12 -6 -20 -29 -32 -37 -44 -32 -44 4 0 0 -7 -7 -15
-31 -34 -36 -43 -31 -49 4 -3 1 -6 -6 -6 -7 0 -10 -4 -7 -8 3 -5 -4 -14 -14
-22 -10 -8 -17 -17 -14 -22 3 -4 0 -8 -7 -8 -7 0 -10 -3 -6 -6 3 -4 1 -12 -6
-20 -29 -32 -37 -44 -32 -44 4 0 0 -7 -7 -15 -31 -34 -36 -43 -31 -49 4 -3 1
-6 -6 -6 -7 0 -10 -4 -7 -8 3 -5 -4 -14 -14 -22 -10 -8 -17 -17 -14 -22 3 -4
0 -8 -7 -8 -7 0 -10 -3 -6 -6 3 -4 1 -12 -6 -20 -29 -32 -37 -44 -32 -44 5 0
-3 -12 -32 -44 -7 -8 -9 -16 -6 -20 4 -3 1 -6 -6 -6 -7 0 -10 -4 -7 -8 3 -5
-4 -14 -14 -22 -10 -8 -17 -17 -14 -22 3 -4 0 -8 -7 -8 -7 0 -10 -3 -6 -6 3
-4 1 -12 -6 -20 -29 -32 -37 -44 -32 -44 4 0 0 -7 -7 -15 -31 -34 -36 -43 -31
-49 4 -3 1 -6 -6 -6 -7 0 -10 -4 -7 -8 3 -5 -4 -14 -14 -22 -10 -8 -17 -17
-14 -22 3 -4 0 -8 -7 -8 -7 0 -10 -3 -6 -6 3 -4 1 -12 -6 -20 -29 -32 -37 -44
-32 -44 4 0 0 -7 -7 -15 -31 -34 -36 -43 -31 -49 4 -3 1 -6 -6 -6 -7 0 -10 -4
-7 -8 3 -5 -4 -14 -14 -22 -10 -8 -17 -17 -14 -22 3 -4 0 -8 -7 -8 -7 0 -10
-3 -6 -6 3 -4 1 -12 -6 -20 -29 -32 -37 -44 -32 -44 4 0 0 -7 -7 -15 -31 -34
-36 -43 -31 -49 4 -3 1 -6 -6 -6 -7 0 -10 -4 -7 -8 3 -5 -4 -14 -14 -22 -10
-8 -17 -17 -14 -22 3 -4 0 -8 -7 -8 -7 0 -10 -3 -6 -6 3 -4 1 -12 -6 -20 -30
-33 -35 -42 -30 -48 4 -3 1 -6 -6 -6 -7 0 -10 -4 -7 -8 3 -5 -4 -14 -14 -22
-10 -8 -17 -17 -14 -22 3 -4 0 -8 -7 -8 -7 0 -10 -3 -6 -6 3 -4 0 -13 -8 -20
-7 -8 -15 -19 -17 -26 -4 -10 -9 -9 -21 3 -9 9 -13 19 -10 23 4 3 1 6 -6 6 -7
0 -10 4 -7 8 3 5 -4 14 -14 22 -10 8 -17 17 -14 22 3 4 0 8 -7 8 -7 0 -10 3
-6 6 3 4 1 12 -6 20 -29 32 -37 44 -32 44 4 0 0 7 -7 15 -31 34 -36 43 -31 49
4 3 1 6 -6 6 -7 0 -10 4 -7 8 3 5 -4 14 -14 22 -10 8 -17 17 -14 22 3 4 0 8
-7 8 -7 0 -10 3 -6 6 3 4 1 12 -6 20 -29 32 -37 44 -32 44 4 0 0 7 -7 15 -31
34 -36 43 -31 49 4 3 1 6 -6 6 -7 0 -10 4 -7 8 3 5 -4 14 -14 22 -10 8 -17 17
-14 22 3 4 0 8 -7 8 -7 0 -10 3 -6 6 3 4 1 12 -6 20 -29 32 -37 44 -32 44 4 0
0 7 -7 15 -31 34 -36 43 -31 49 4 3 0 6 -7 6 -7 0 -11 3 -7 6 3 4 1 12 -6 20
-29 32 -37 44 -32 44 4 0 0 7 -7 15 -29 33 -38 45 -33 45 4 0 0 7 -7 15 -31
34 -36 43 -31 49 4 3 0 6 -7 6 -7 0 -11 3 -7 6 3 4 1 12 -6 20 -29 32 -37 44
-32 44 4 0 0 7 -7 15 -29 33 -38 45 -33 45 4 0 0 7 -7 15 -31 34 -36 43 -31
49 4 3 0 6 -7 6 -7 0 -11 3 -7 6 3 4 1 12 -6 20 -29 32 -37 44 -32 44 4 0 0 7
-7 15 -29 33 -38 45 -33 45 4 0 0 7 -7 15 -31 34 -36 43 -31 49 4 3 0 6 -7 6
-7 0 -11 3 -7 6 3 4 1 12 -6 20 -29 32 -37 44 -32 44 6 0 -4 13 -33 45 -7 8
-11 15 -7 15 4 0 0 7 -7 15 -31 34 -36 43 -31 49 4 3 0 6 -7 6 -7 0 -11 3 -7
6 3 4 1 12 -6 20 -29 32 -37 44 -32 44 4 0 0 7 -7 15 -31 34 -36 43 -31 49 4
3 1 6 -6 6 -7 0 -10 4 -7 8 3 5 -4 14 -14 22 -10 8 -17 17 -14 22 3 4 0 8 -7
8 -7 0 -10 3 -6 6 3 4 1 12 -6 20 -29 32 -37 44 -32 44 4 0 0 7 -7 15 -31 34
-36 43 -31 49 4 3 1 6 -6 6 -7 0 -10 4 -7 8 3 5 -4 14 -14 22 -10 8 -17 17
-14 22 3 4 0 8 -7 8 -7 0 -10 3 -6 6 3 4 1 12 -6 20 -29 32 -37 44 -32 44 4 0
0 7 -7 15 -29 32 -39 45 -33 45 5 0 -3 12 -32 44 -7 8 -9 16 -6 20 4 3 0 6 -7
6 -7 0 -11 3 -7 6 3 4 0 13 -8 20 -11 11 -73 14 -319 14 -187 0 -306 -4 -306
-10z"/>
<path d="M1997 3790 c-9 -11 -14 -20 -12 -20 5 0 -4 -12 -32 -44 -7 -8 -9 -16
-6 -20 4 -3 1 -6 -6 -6 -7 0 -10 -4 -7 -8 3 -5 -4 -14 -14 -22 -10 -8 -17 -17
-14 -22 3 -4 0 -8 -7 -8 -7 0 -10 -3 -6 -6 5 -6 0 -15 -31 -49 -7 -8 -11 -15
-7 -15 4 0 0 -7 -7 -15 -31 -34 -36 -43 -31 -49 4 -3 1 -6 -6 -6 -7 0 -10 -4
-7 -8 3 -5 -4 -14 -14 -22 -10 -8 -17 -17 -14 -22 3 -4 0 -8 -7 -8 -7 0 -10
-3 -6 -6 5 -6 0 -15 -31 -49 -7 -8 -11 -15 -7 -15 4 0 0 -7 -7 -15 -31 -34
-36 -43 -31 -49 4 -3 1 -6 -6 -6 -7 0 -10 -4 -7 -8 3 -5 -4 -14 -14 -22 -10
-8 -17 -17 -14 -22 3 -4 0 -8 -7 -8 -7 0 -10 -3 -6 -6 3 -4 1 -12 -6 -20 -29
-32 -37 -44 -32 -44 4 0 0 -7 -7 -15 -31 -34 -36 -43 -31 -49 4 -3 1 -6 -6 -6
-7 0 -10 -4 -7 -8 3 -5 -4 -14 -14 -22 -10 -8 -17 -17 -14 -22 3 -4 0 -8 -7
-8 -7 0 -10 -3 -6 -6 3 -4 1 -12 -6 -20 -29 -32 -37 -44 -32 -44 4 0 0 -7 -7
-15 -31 -34 -36 -43 -31 -49 4 -3 1 -6 -6 -6 -7 0 -10 -4 -7 -8 3 -5 -4 -14
-14 -22 -10 -8 -17 -17 -14 -22 3 -4 0 -8 -7 -8 -7 0 -10 -3 -6 -6 3 -4 1 -12
-6 -20 -29 -32 -37 -44 -32 -44 4 0 0 -7 -7 -15 -29 -33 -38 -45 -33 -45 4 0
0 -7 -7 -15 -31 -34 -36 -43 -31 -49 4 -3 0 -6 -7 -6 -7 0 -11 -3 -7 -6 3 -4
1 -12 -6 -20 -29 -32 -37 -44 -32 -44 6 0 -4 -13 -33 -45 -7 -8 -11 -15 -7
-15 4 0 0 -7 -7 -15 -31 -34 -36 -43 -31 -49 4 -3 0 -6 -7 -6 -7 0 -11 -3 -7
-6 5 -6 0 -15 -31 -49 -7 -8 -11 -15 -7 -15 4 0 0 -7 -7 -15 -31 -34 -36 -43
-31 -49 4 -3 1 -6 -6 -6 -7 0 -10 -4 -7 -8 3 -5 -4 -14 -14 -22 -10 -8 -17
-17 -14 -22 3 -4 0 -8 -7 -8 -7 0 -10 -3 -6 -6 3 -4 1 -12 -6 -20 -29 -32 -37
-44 -32 -44 4 0 0 -7 -7 -15 -31 -34 -36 -43 -31 -49 4 -3 1 -6 -6 -6 -7 0
-10 -4 -7 -8 3 -5 -4 -14 -14 -22 -10 -8 -17 -17 -14 -22 3 -4 0 -8 -7 -8 -7
0 -10 -3 -6 -6 3 -4 1 -12 -6 -20 -29 -32 -37 -44 -32 -44 4 0 0 -7 -7 -15
-31 -34 -36 -43 -31 -49 4 -3 1 -6 -6 -6 -7 0 -10 -4 -7 -8 3 -5 -4 -14 -14
-22 -10 -8 -17 -17 -14 -22 3 -4 0 -8 -7 -8 -7 0 -10 -3 -6 -6 3 -4 1 -12 -6
-20 -29 -32 -37 -44 -32 -44 4 0 0 -7 -7 -15 -31 -34 -36 -43 -31 -49 4 -3 1
-6 -6 -6 -7 0 -10 -4 -7 -8 3 -5 -4 -14 -14 -22 -10 -8 -17 -17 -14 -22 3 -4
0 -8 -7 -8 -7 0 -10 -3 -6 -6 3 -4 1 -12 -6 -20 -29 -32 -37 -44 -32 -44 4 0
0 -7 -7 -15 -31 -34 -36 -43 -31 -49 4 -3 1 -6 -6 -6 -7 0 -10 -4 -7 -8 3 -5
-4 -14 -14 -22 -10 -8 -17 -17 -14 -22 3 -4 0 -8 -7 -8 -7 0 -10 -3 -6 -6 3
-4 1 -12 -6 -20 -29 -32 -37 -44 -32 -44 4 0 0 -7 -7 -15 -31 -34 -36 -43 -31
-49 4 -3 1 -6 -6 -6 -7 0 -10 -4 -7 -8 3 -5 -4 -14 -14 -22 -10 -8 -17 -17
-14 -22 3 -4 0 -8 -7 -8 -7 0 -10 -3 -6 -6 3 -4 1 -12 -6 -20 -29 -32 -37 -44
-32 -44 4 0 0 -7 -7 -15 -31 -34 -36 -43 -31 -49 4 -3 1 -6 -6 -6 -7 0 -10 -4
-7 -8 3 -5 -4 -14 -14 -22 -10 -8 -17 -17 -14 -22 3 -4 0 -8 -7 -8 -7 0 -10
-3 -6 -6 5 -6 0 -15 -31 -49 -7 -8 -11 -15 -7 -15 4 0 0 -7 -7 -15 -31 -34
-36 -43 -31 -49 4 -3 1 -6 -6 -6 -7 0 -10 -4 -7 -8 3 -5 -4 -14 -14 -22 -10
-8 -17 -17 -14 -22 3 -4 0 -8 -7 -8 -7 0 -10 -3 -6 -6 3 -4 0 -13 -8 -21 -8
-8 -15 -21 -15 -29 0 -12 88 -14 611 -14 539 0 610 2 605 15 -3 8 -1 15 5 15
6 0 7 5 4 10 -3 6 0 10 8 10 8 0 22 18 32 40 10 22 21 38 25 35 3 -2 12 12 19
31 7 19 16 32 20 30 4 -3 13 11 20 30 7 18 16 34 20 34 4 0 16 18 26 40 10 22
21 38 25 35 3 -2 12 12 19 31 7 19 17 32 22 29 5 -4 9 3 9 15 0 21 -1 21 -278
18 -224 -2 -276 -1 -266 10 7 6 16 21 19 32 3 11 11 20 16 20 6 0 7 5 4 10 -3
6 -2 10 3 10 5 0 15 14 22 30 7 17 16 30 20 30 4 0 13 14 20 30 7 17 16 30 20
30 4 0 13 13 20 30 7 16 17 30 22 30 5 0 6 5 3 10 -3 5 -2 10 3 10 5 0 15 14
22 30 7 17 16 30 20 30 4 0 13 14 20 30 7 17 16 30 20 30 4 0 13 14 20 30 7
17 17 30 22 30 5 0 6 5 3 10 -3 6 -2 10 3 10 5 0 15 13 22 30 7 17 16 30 20
30 4 0 13 14 20 30 7 16 16 30 20 30 4 0 13 14 20 30 7 17 17 30 22 30 5 0 6
5 3 10 -3 5 -2 10 3 10 5 0 15 14 22 30 7 17 16 30 20 30 4 0 13 14 20 30 7
17 16 30 20 30 4 0 13 13 20 30 7 16 17 30 22 30 5 0 6 5 3 10 -3 6 -2 10 3
10 5 0 15 13 22 30 7 17 16 30 20 30 4 0 13 14 20 30 7 17 16 30 20 30 4 0 13
13 20 30 7 17 17 30 22 30 5 0 6 5 3 10 -3 6 -2 10 3 10 5 0 15 14 22 30 7 17
16 30 20 30 4 0 13 14 20 30 7 17 16 30 20 30 4 0 13 14 20 30 7 17 17 30 22
30 5 0 6 5 3 10 -3 6 -2 10 3 10 5 0 15 14 22 30 7 17 16 30 20 30 4 0 13 14
20 30 7 17 16 30 20 30 4 0 13 14 20 30 7 17 17 30 23 30 6 0 8 3 4 6 -3 4 -1
12 6 20 30 33 35 42 30 48 -4 3 -2 6 4 6 6 0 16 14 23 30 7 17 15 30 19 30 10
0 38 -35 57 -72 9 -17 23 -38 30 -46 8 -7 17 -24 20 -38 3 -13 10 -22 14 -19
4 3 13 -9 20 -25 7 -17 16 -30 20 -30 4 0 15 -18 25 -40 10 -22 22 -40 26 -40
4 0 13 -16 20 -34 7 -19 16 -33 20 -31 4 3 12 -9 19 -25 7 -17 16 -30 20 -30
4 0 15 -18 25 -40 10 -22 22 -40 26 -40 4 0 13 -16 20 -34 7 -19 16 -33 20
-31 4 3 12 -9 19 -25 7 -17 16 -30 20 -30 4 0 15 -18 25 -40 10 -22 22 -40 26
-40 4 0 13 -16 20 -34 7 -19 16 -33 20 -31 4 3 12 -9 19 -25 7 -17 16 -30 20
-30 4 0 15 -18 25 -40 10 -22 22 -40 26 -40 4 0 13 -16 20 -34 7 -19 16 -33
20 -31 4 3 12 -9 19 -25 7 -17 16 -30 20 -30 4 0 15 -18 25 -40 10 -22 22 -40
26 -40 4 0 13 -16 20 -34 7 -19 16 -33 20 -31 4 3 12 -9 19 -25 7 -17 16 -30
20 -30 4 0 15 -18 25 -40 10 -22 22 -40 26 -40 4 0 13 -16 20 -34 7 -19 16
-33 20 -31 4 3 12 -9 19 -25 7 -17 16 -30 20 -30 4 0 15 -18 25 -40 10 -22 22
-40 26 -40 4 0 13 -16 20 -34 7 -19 16 -33 20 -31 4 3 9 -2 13 -10 5 -13 -29
-15 -259 -15 -223 0 -265 -2 -265 -14 0 -8 7 -21 15 -29 8 -8 11 -17 8 -21 -4
-3 -2 -6 4 -6 6 0 16 -13 23 -30 7 -16 16 -30 20 -30 4 0 13 -13 20 -30 7 -16
17 -30 23 -30 6 0 8 -3 4 -6 -3 -4 -1 -12 6 -20 30 -33 35 -42 30 -48 -4 -3
-2 -6 4 -6 6 0 16 -14 23 -30 7 -17 16 -30 20 -30 4 0 13 -13 20 -30 7 -16 16
-30 21 -30 5 0 6 -7 3 -15 -5 -13 66 -15 610 -15 404 0 616 3 616 10 0 6 -5
10 -11 10 -5 0 -7 5 -4 10 3 6 2 10 -3 10 -5 0 -15 14 -22 30 -7 17 -16 30
-20 30 -4 0 -13 14 -20 30 -7 17 -17 30 -23 30 -6 0 -8 3 -4 6 3 4 1 12 -6 20
-30 33 -35 42 -30 48 4 3 2 6 -4 6 -6 0 -16 14 -23 30 -7 17 -16 30 -20 30 -4
0 -13 14 -20 30 -7 17 -17 30 -23 30 -6 0 -8 3 -4 6 3 4 1 12 -6 20 -30 33
-35 42 -30 48 4 3 2 6 -4 6 -6 0 -16 14 -23 30 -7 17 -16 30 -20 30 -4 0 -13
13 -20 30 -7 17 -17 30 -23 30 -6 0 -8 3 -4 6 3 4 1 12 -6 20 -30 33 -35 42
-30 48 4 3 2 6 -4 6 -6 0 -16 14 -23 30 -7 17 -16 30 -20 30 -4 0 -13 14 -20
30 -7 17 -17 30 -23 30 -6 0 -8 3 -4 6 5 6 0 15 -30 48 -7 8 -9 16 -6 20 4 3
2 6 -4 6 -6 0 -16 14 -23 30 -7 17 -16 30 -20 30 -4 0 -13 14 -20 30 -7 17
-17 30 -23 30 -6 0 -8 3 -4 6 3 4 1 12 -6 20 -29 32 -37 44 -32 44 4 0 0 7 -7
15 -31 34 -36 43 -31 49 4 3 2 6 -4 6 -6 0 -16 13 -23 30 -7 17 -16 30 -20 30
-4 0 -13 14 -20 30 -7 16 -17 30 -23 30 -6 0 -8 3 -4 6 3 4 1 12 -6 20 -30 33
-35 42 -30 48 4 3 2 6 -4 6 -6 0 -16 14 -23 30 -7 17 -16 30 -20 30 -4 0 -13
14 -20 30 -7 17 -17 30 -23 30 -6 0 -8 3 -4 6 3 4 1 12 -6 20 -30 33 -35 42
-30 48 4 3 2 6 -4 6 -6 0 -16 14 -23 30 -7 17 -16 30 -20 30 -4 0 -13 14 -20
30 -7 17 -17 30 -23 30 -6 0 -8 3 -4 6 3 4 1 12 -6 20 -29 32 -37 44 -32 44 4
0 0 7 -7 15 -31 34 -36 43 -31 49 4 3 2 6 -4 6 -6 0 -16 14 -23 30 -7 17 -17
30 -23 30 -6 0 -8 3 -4 6 3 4 1 12 -6 20 -29 32 -37 44 -32 44 5 0 -3 12 -32
44 -7 8 -9 16 -6 20 4 3 2 6 -4 6 -6 0 -16 14 -23 30 -7 17 -17 30 -23 30 -6
0 -8 3 -4 6 5 6 0 15 -31 49 -7 8 -11 15 -7 15 5 0 -3 12 -32 44 -7 8 -9 16
-6 20 4 3 2 6 -4 6 -6 0 -16 14 -23 30 -7 17 -17 30 -23 30 -6 0 -8 3 -4 6 5
6 0 15 -31 49 -7 8 -11 15 -7 15 4 0 0 7 -7 15 -31 34 -36 43 -31 49 4 3 2 6
-4 6 -6 0 -16 14 -23 30 -7 17 -17 30 -23 30 -6 0 -8 3 -4 6 3 4 1 12 -6 20
-29 32 -37 44 -32 44 4 0 0 7 -7 15 -31 34 -36 43 -31 49 4 3 2 6 -4 6 -6 0
-16 14 -23 30 -7 17 -17 30 -23 30 -6 0 -8 3 -4 6 3 4 1 12 -6 20 -29 32 -37
44 -32 44 4 0 0 7 -7 15 -31 34 -36 43 -31 49 4 3 2 6 -4 6 -6 0 -16 14 -23
30 -7 17 -17 30 -23 30 -6 0 -8 3 -4 6 3 4 1 12 -6 20 -29 32 -37 44 -32 44 5
0 -3 12 -32 44 -7 8 -9 16 -6 20 4 3 2 6 -4 6 -6 0 -16 14 -23 30 -7 17 -17
30 -22 30 -5 0 -6 5 -3 10 12 19 -20 10 -38 -10z"/>
</g>
</svg>
